<svg xmlns="http://www.w3.org/2000/svg" font-family="Helvetica Neue, sans-serif" width="700" height="416"><g transform="translate(70, 0)"><rect fill="#c44547" width="7" y="377" height="14"><title>1</title></rect><rect fill="#c44547" width="30" y="331" height="14"><title>4</title></rect><rect fill="#c44547" width="0" y="285" height="14"><title>0</title></rect><rect fill="#c44547" width="22" y="239" height="14"><title>3</title></rect><rect fill="#c44547" width="0" y="193" height="14"><title>0</title></rect><rect fill="#c44547" width="112" y="147" height="14"><title>15</title></rect><rect fill="#c44547" width="37" y="101" height="14"><title>5</title></rect><rect fill="#c44547" width="351" y="55" height="14"><title>47</title></rect><rect fill="#c44547" width="209" y="9" height="14"><title>28</title></rect><text font-size="13" fill="#333" x="7" y="377" dx="7" dy="0.9em">1%</text><text font-size="13" fill="#333" x="30" y="331" dx="7" dy="0.9em">4%</text><text font-size="13" fill="#333" x="0" y="285" dx="7" dy="0.9em"></text><text font-size="13" fill="#333" x="22" y="239" dx="7" dy="0.9em">3%</text><text font-size="13" fill="#333" x="0" y="193" dx="7" dy="0.9em"></text><text font-size="13" fill="#333" x="112" y="147" dx="7" dy="0.9em">15%</text><text font-size="13" fill="#333" x="37" y="101" dx="7" dy="0.9em">5%</text><text font-size="13" fill="#333" x="351" y="55" dx="7" dy="0.9em">48%</text><text font-size="13" fill="#333" x="209" y="9" dx="7" dy="0.9em">29%</text><rect fill="#799ac1" width="14" y="395" height="14"><title>23</title></rect><rect fill="#799ac1" width="10" y="349" height="14"><title>16</title></rect><rect fill="#799ac1" width="12" y="303" height="14"><title>20</title></rect><rect fill="#799ac1" width="53" y="257" height="14"><title>85</title></rect><rect fill="#799ac1" width="31" y="211" height="14"><title>50</title></rect><rect fill="#799ac1" width="69" y="165" height="14"><title>111</title></rect><rect fill="#799ac1" width="24" y="119" height="14"><title>38</title></rect><rect fill="#799ac1" width="580" y="73" height="14"><title>935</title></rect><rect fill="#799ac1" width="50" y="27" height="14"><title>80</title></rect><text font-size="13" fill="#333" x="14" y="395" dx="7" dy="0.9em">2%</text><text font-size="13" fill="#333" x="10" y="349" dx="7" dy="0.9em">1%</text><text font-size="13" fill="#333" x="12" y="303" dx="7" dy="0.9em">2%</text><text font-size="13" fill="#333" x="53" y="257" dx="7" dy="0.9em">7%</text><text font-size="13" fill="#333" x="31" y="211" dx="7" dy="0.9em">4%</text><text font-size="13" fill="#333" x="69" y="165" dx="7" dy="0.9em">9%</text><text font-size="13" fill="#333" x="24" y="119" dx="7" dy="0.9em">3%</text><text font-size="13" fill="#333" x="580" y="73" dx="7" dy="0.9em">80%</text><text font-size="13" fill="#333" x="50" y="27" dx="7" dy="0.9em">7%</text><g fill="none" font-size="10" font-family="sans-serif" text-anchor="end"><path class="domain" stroke="#ccc" d="M0,416.5H0.5V0.5H0"></path><g class="tick" opacity="1" transform="translate(0,391.61379310344824)"><line stroke="#000" x2="0" y1="0.5" y2="0.5"></line><text fill="#333" x="-3" y="0.5" dy="0.32em" font-size="13">Other</text></g><g class="tick" opacity="1" transform="translate(0,345.7103448275862)"><line stroke="#000" x2="0" y1="0.5" y2="0.5"></line><text fill="#333" x="-3" y="0.5" dy="0.32em" font-size="13">xo</text></g><g class="tick" opacity="1" transform="translate(0,299.8068965517241)"><line stroke="#000" x2="0" y1="0.5" y2="0.5"></line><text fill="#333" x="-3" y="0.5" dy="0.32em" font-size="13">TSLint</text></g><g class="tick" opacity="1" transform="translate(0,253.90344827586208)"><line stroke="#000" x2="0" y1="0.5" y2="0.5"></line><text fill="#333" x="-3" y="0.5" dy="0.32em" font-size="13">Standard</text></g><g class="tick" opacity="1" transform="translate(0,208)"><line stroke="#000" x2="0" y1="0.5" y2="0.5"></line><text fill="#333" x="-3" y="0.5" dy="0.32em" font-size="13">Prettier</text></g><g class="tick" opacity="1" transform="translate(0,162.09655172413792)"><line stroke="#000" x2="0" y1="0.5" y2="0.5"></line><text fill="#333" x="-3" y="0.5" dy="0.32em" font-size="13">JSHint</text></g><g class="tick" opacity="1" transform="translate(0,116.19310344827585)"><line stroke="#000" x2="0" y1="0.5" y2="0.5"></line><text fill="#333" x="-3" y="0.5" dy="0.32em" font-size="13">JSCS</text></g><g class="tick" opacity="1" transform="translate(0,70.28965517241379)"><line stroke="#000" x2="0" y1="0.5" y2="0.5"></line><text fill="#333" x="-3" y="0.5" dy="0.32em" font-size="13">ESLint</text></g><g class="tick" opacity="1" transform="translate(0,24.38620689655172)"><line stroke="#000" x2="0" y1="0.5" y2="0.5"></line><text fill="#333" x="-3" y="0.5" dy="0.32em" font-size="13">No</text></g></g><g text-anchor="end"><g transform="translate(50, 395)"><rect x="566" width="14" height="14" fill="#799ac1"></rect><text font-size="13" fill="#333" x="562" y="7" dy="0.32em">Survey</text></g><g transform="translate(50, 377)"><rect x="566" width="14" height="14" fill="#c44547"></rect><text font-size="13" fill="#333" x="562" y="7" dy="0.32em">Top npm</text></g></g></g></svg>